<!-- icon666.com - MILLIONS OF FREE VECTOR ICONS --><svg id="Layer_1" enable-background="new 0 0 512.062 512.062" viewBox="0 0 512.062 512.062" xmlns="http://www.w3.org/2000/svg"><path d="m447.432 64.798c-45.646-45.726-108.754-69.096-173.16-64.105-8.259.64-14.437 7.854-13.797 16.113.639 8.259 7.841 14.444 16.113 13.797 55.637-4.309 110.171 15.88 149.611 55.389 39.44 39.511 59.593 94.152 55.291 149.912-.637 8.26 5.542 15.472 13.802 16.109.393.03.783.045 1.17.045 7.76 0 14.333-5.979 14.939-13.847 4.977-64.494-18.339-127.701-63.969-173.413z"></path><path d="m284.395 82.64c-8.274.417-14.644 7.461-14.227 15.735s7.469 14.649 15.735 14.227c30.562-1.535 60.486 10.007 82.115 31.675 21.631 21.67 33.156 51.665 31.62 82.294-.415 8.274 5.956 15.317 14.229 15.732.256.013.51.02.764.02 7.939 0 14.567-6.231 14.969-14.249 1.96-39.071-12.747-77.338-40.349-104.991-27.617-27.665-65.837-42.413-104.856-40.443z"></path><path d="m293.147 186.462c8.558.435 16.612 4.021 22.68 10.1 6.075 6.086 9.656 14.159 10.083 22.731.399 8.021 7.027 14.255 14.969 14.255.251 0 .504-.006.758-.019 8.274-.412 14.648-7.453 14.236-15.727-.797-16.009-7.478-31.08-18.813-42.435-11.334-11.354-26.389-18.054-42.391-18.867-8.273-.426-15.321 5.946-15.741 14.22s5.945 15.322 14.219 15.742z"></path><path d="m304.245 328.164c-2.807-2.819-6.619-4.408-10.598-4.417-.011 0-.021 0-.033 0-3.966 0-7.772 1.571-10.584 4.371l-44.688 44.497-99.058-99.504 44.69-44.5c5.87-5.845 5.891-15.341.046-21.212l-91.309-91.72c-2.807-2.82-6.619-4.409-10.597-4.417-.011 0-.022 0-.033 0-3.967 0-7.773 1.571-10.584 4.371l-39.886 39.715c-42.02 41.84-42.169 110.069-.333 152.093l172.262 173.035c20.194 20.286 47.175 31.492 75.972 31.555h.245c28.704 0 55.64-11.083 75.865-31.221l39.886-39.715c5.87-5.845 5.891-15.342.046-21.212zm-222.209-180.688 70.143 70.459-21.48 21.388-70.254-70.349zm197.72 334.556c-.059 0-.119 0-.177 0-20.783-.046-40.237-8.115-54.777-22.721l-172.262-173.036c-25.497-25.612-29.362-64.72-11.654-94.431l70.407 70.502c-4.097 10.702-1.863 23.296 6.731 31.93l99.059 99.504c5.654 5.68 13.181 8.817 21.195 8.834h.067c3.813 0 7.515-.714 10.962-2.066l70.406 70.501c-11.913 7.158-25.623 10.983-39.957 10.983zm62.809-30.555-70.253-70.349 21.258-21.167 70.144 70.459z"></path></svg>