<!-- icon666.com - MILLIONS OF FREE VECTOR ICONS --><svg id="Capa_1" enable-background="new 0 0 512.022 512.022" viewBox="0 0 512.022 512.022" xmlns="http://www.w3.org/2000/svg"><g><g><path d="m368.689 313.005c-7.806-7.806-20.475-7.809-28.285 0l-28.283 28.284c-7.798 7.798-20.486 7.798-28.284 0l-113.139-113.137c-7.798-7.798-7.798-20.487 0-28.285l28.285-28.284c7.805-7.805 7.81-20.475 0-28.284l-84.853-84.852c-7.811-7.811-20.474-7.811-28.284 0l-56.568 56.568c-38.99 38.99-38.99 102.431 0 141.421l226.273 226.274c39.08 39.081 102.337 39.084 141.422 0l56.568-56.568c7.81-7.811 7.811-20.474 0-28.284zm-.001 141.421c-23.447 23.448-61.4 23.451-84.853 0l-226.274-226.274c-23.394-23.394-23.394-61.459 0-84.853l42.426-42.426 56.568 56.568-14.143 14.142c-23.393 23.394-23.393 61.459 0 84.853l113.138 113.138c23.393 23.395 61.459 23.395 84.854-.001l14.141-14.142 56.57 56.569z" fill="#000000" style="fill: rgb(211, 101, 26);"></path></g><g><path d="m271.988 0c-11.046 0-20 8.954-20 20s8.954 20 20 20c110.28 0 200 89.72 200 200 0 11.046 8.954 20 20 20s20-8.954 20-20c0-132.336-107.663-240-240-240z" fill="#000000" style="fill: rgb(211, 101, 26);"></path></g><g><path d="m271.988 120c66.168 0 120 53.832 120 120 0 11.046 8.954 20 20 20s20-8.954 20-20c0-88.224-71.775-160-160-160-11.046 0-20 8.954-20 20s8.954 20 20 20z" fill="#000000" style="fill: rgb(211, 101, 26);"></path></g><g><path d="m271.988 200c22.056 0 40 17.944 40 40 0 11.046 8.954 20 20 20s20-8.954 20-20c0-44.112-35.888-80-80-80-11.046 0-20 8.954-20 20s8.954 20 20 20z" fill="#000000" style="fill: rgb(211, 101, 26);"></path></g></g></svg>