<!-- icon666.com - MILLIONS OF FREE VECTOR ICONS --><svg version="1.1" id="Layer_1" xmlns="http://www.w3.org/2000/svg" xmlns:xlink="http://www.w3.org/1999/xlink" x="0px" y="0px" viewBox="0 0 512 512" style="enable-background:new 0 0 512 512;" xml:space="preserve"><g><g><path d="M461.913,72.348H50.087C21.236,72.348,0,96.108,0,122.435v267.13c0,27.618,22.469,50.087,50.087,50.087h411.826 c27.618,0,50.087-22.469,50.087-50.087v-267.13C512,95.682,490.385,72.348,461.913,72.348z M50.087,105.739h411.826 c3.755,0,7.58,1.382,10.529,3.814L267.792,314.204c-6.502,6.501-17.083,6.5-23.583,0L39.558,109.554 C42.483,107.144,46.298,105.739,50.087,105.739z M478.609,389.565c0,9.206-7.49,16.696-16.696,16.696H50.087 c-9.206,0-16.696-7.49-16.696-16.696V150.609l187.206,187.206c19.521,19.518,51.282,19.521,70.804,0l187.207-187.206V389.565z" fill="#000000" style="fill: rgb(216, 101, 26);"></path></g></g></svg>