<!-- icon666.com - MILLIONS OF FREE VECTOR ICONS --><svg viewBox="0 -55 512 512" xmlns="http://www.w3.org/2000/svg"><path d="m196.265625 42.667969h204.800781v42.664062h-204.800781zm0 0" fill="#cfd8dc" style="fill: rgb(0, 0, 0);"></path><path d="m196.265625 42.667969h179.199219v42.664062h-179.199219zm0 0" fill="#f5f5f5" style="fill: rgb(94, 94, 94);"></path><path d="m230.398438 42.667969v42.664062c-.027344 9.414063-7.652344 17.039063-17.066407 17.066407h-51.199219v-76.796876h51.199219c9.414063.027344 17.039063 7.652344 17.066407 17.066407zm0 0" fill="#37474f"></path><path d="m204.800781 42.667969v42.664062c-.027343 9.414063-7.652343 17.039063-17.066406 17.066407h-25.601563v-76.796876h25.601563c9.414063.027344 17.039063 7.652344 17.066406 17.066407zm0 0" fill="#607d8b"></path><path d="m452.265625 25.601562v76.796876h-34.132813c-9.414062-.027344-17.039062-7.652344-17.066406-17.066407v-42.664062c.027344-9.414063 7.652344-17.039063 17.066406-17.066407zm0 0" fill="#37474f"></path><path d="m426.667969 25.601562v76.796876h-8.535157c-9.414062-.027344-17.039062-7.652344-17.066406-17.066407v-42.664062c.027344-9.414063 7.652344-17.039063 17.066406-17.066407zm0 0" fill="#607d8b"></path><path d="m170.667969 162.132812h119.464843v34.132813h-119.464843zm0 0" fill="#545c60"></path><path d="m341.332031 162.132812h119.46875v34.132813h-119.46875" fill="#545c60"></path><path d="m503.464844 51.199219v332.800781c-.011719 4.707031-3.824219 8.519531-8.53125 8.535156h-477.867188c-4.707031-.015625-8.519531-3.828125-8.53125-8.535156v-332.800781c.007813-23.558594 19.105469-42.65625 42.664063-42.664063h119.46875c4.707031.011719 8.519531 3.824219 8.53125 8.53125v221.867188c.015625 4.707031 3.828125 8.519531 8.535156 8.53125h256c4.707031-.011719 8.519531-3.824219 8.53125-8.53125v-221.867188c-.019531-1.546875.425781-3.0625 1.28125-4.351562 1.511719-2.574219 4.265625-4.164063 7.253906-4.179688 11.324219-.035156 22.199219 4.449219 30.207031 12.457032 8.007813 8.007812 12.492188 18.882812 12.457032 30.207031zm0 0" fill="#549414" style="fill: rgb(211, 211, 211);"></path><path d="m477.867188 51.199219v332.800781c-.015626 4.707031-3.828126 8.519531-8.535157 8.535156h-452.265625c-4.707031-.015625-8.519531-3.828125-8.53125-8.535156v-332.800781c.007813-23.558594 19.105469-42.65625 42.664063-42.664063h93.867187c4.707032.011719 8.519532 3.824219 8.535156 8.53125v221.867188c.011719 4.707031 3.824219 8.519531 8.53125 8.53125h281.601563c4.707031-.011719 8.519531-3.824219 8.53125-8.53125v-221.867188c-.019531-1.546875.425781-3.0625 1.28125-4.351562 4.410156 2.039062 8.425781 4.839844 11.859375 8.277344 7.980469 8.027343 12.460938 18.886718 12.460938 30.207031zm0 0" fill="#60a917" style="fill: rgb(211, 211, 211);"></path><path d="m315.734375 85.332031s-15.617187 7.082031-16.980469 68.269531h-8.621094c-4.710937 0-8.53125 3.820313-8.53125 8.53125v34.132813c0 4.714844 3.820313 8.535156 8.53125 8.535156h51.199219c4.714844 0 8.535157-3.820312 8.535157-8.535156v-34.132813c0-4.710937-3.820313-8.53125-8.535157-8.53125h-8.617187c-1.367188-61.1875-16.980469-68.269531-16.980469-68.269531zm0 0" fill="#9e9e9e"></path><path d="m51.199219 51.199219h17.066406c4.714844 0 8.535156 3.820312 8.535156 8.535156v17.066406c0 4.710938-3.820312 8.53125-8.535156 8.53125h-17.066406c-4.710938 0-8.53125-3.820312-8.53125-8.53125v-17.066406c0-4.714844 3.820312-8.535156 8.53125-8.535156zm0 0" fill="#f44335" style="fill: rgb(148, 148, 148);"></path><path d="m119.464844 51.199219h17.070312c4.710938 0 8.53125 3.820312 8.53125 8.535156v17.066406c0 4.710938-3.820312 8.53125-8.53125 8.53125h-17.070312c-4.710938 0-8.53125-3.820312-8.53125-8.53125v-17.066406c0-4.714844 3.820312-8.535156 8.53125-8.535156zm0 0" fill="#02a9f4" style="fill: rgb(128, 128, 128);"></path><path d="m51.199219 119.464844h17.066406c4.714844 0 8.535156 3.824218 8.535156 8.535156v17.066406c0 4.714844-3.820312 8.535156-8.535156 8.535156h-17.066406c-4.710938 0-8.53125-3.820312-8.53125-8.535156v-17.066406c0-4.710938 3.820312-8.535156 8.53125-8.535156zm0 0" fill="#7f8e94"></path><path d="m119.464844 119.464844h17.070312c4.710938 0 8.53125 3.824218 8.53125 8.535156v17.066406c0 4.714844-3.820312 8.535156-8.53125 8.535156h-17.070312c-4.710938 0-8.53125-3.820312-8.53125-8.535156v-17.066406c0-4.710938 3.820312-8.535156 8.53125-8.535156zm0 0" fill="#7f8e94"></path><path d="m196.265625 332.800781v59.734375h-34.132813v-42.667968c.027344-9.414063 7.652344-17.039063 17.066407-17.066407zm0 0" fill="#00695c" style="fill: rgb(138, 138, 138);"></path><path d="m196.265625 332.800781h34.132813v59.734375h-34.132813zm0 0" fill="#009688" style="fill: rgb(56, 56, 56);"></path><path d="m401.066406 332.800781h34.132813v59.734375h-34.132813zm0 0" fill="#009688" style="fill: rgb(56, 56, 56);"></path><g fill="#00695c"><path d="m469.332031 349.867188v42.667968h-34.132812v-59.734375h17.066406c9.414063.027344 17.039063 7.652344 17.066406 17.066407zm0 0" fill="#00695c" style="fill: rgb(138, 138, 138);"></path><path d="m230.398438 332.800781h34.136718v59.734375h-34.136718zm0 0" fill="#00695c" style="fill: rgb(138, 138, 138);"></path><path d="m366.933594 332.800781h34.132812v59.734375h-34.132812zm0 0" fill="#00695c" style="fill: rgb(138, 138, 138);"></path></g><path d="m264.535156 332.800781h34.132813v59.734375h-34.132813zm0 0" fill="#009688" style="fill: rgb(56, 56, 56);"></path><path d="m332.800781 332.800781h34.132813v59.734375h-34.132813zm0 0" fill="#009688" style="fill: rgb(56, 56, 56);"></path><path d="m298.667969 332.800781h34.132812v59.734375h-34.132812zm0 0" fill="#00695c" style="fill: rgb(138, 138, 138);"></path><path d="m119.464844 247.464844c.011718 6.792968-2.683594 13.3125-7.484375 18.113281-4.804688 4.804687-11.320313 7.496094-18.113281 7.488281-3.691407.007813-7.335938-.808594-10.667969-2.390625-9.09375-4.140625-14.933594-13.214843-14.933594-23.210937 0-9.992188 5.839844-19.066406 14.933594-23.207032 3.332031-1.582031 6.976562-2.398437 10.667969-2.390624 6.792968-.007813 13.308593 2.683593 18.113281 7.488281 4.800781 4.800781 7.496093 11.320312 7.484375 18.109375zm0 0" fill="#0377bc" style="fill: rgb(128, 128, 128);"></path><path d="m98.132812 247.464844c.023438 10.003906-5.824218 19.085937-14.933593 23.210937-9.09375-4.140625-14.933594-13.214843-14.933594-23.210937 0-9.992188 5.839844-19.066406 14.933594-23.207032 9.109375 4.125 14.957031 13.207032 14.933593 23.207032zm0 0" fill="#02a9f4" style="fill: rgb(128, 128, 128);"></path><path d="m503.464844 401.066406h-494.929688c-4.714844 0-8.535156-3.820312-8.535156-8.53125v-341.335937c.03125-28.261719 22.9375-51.167969 51.199219-51.199219h119.46875c9.417969.0117188 17.054687 7.644531 17.066406 17.066406v221.867188h256v-221.867188c.011719-9.421875 7.644531-17.0546872 17.066406-17.066406 28.261719.03125 51.167969 22.9375 51.199219 51.199219v341.335937c0 4.710938-3.820312 8.53125-8.535156 8.53125zm-486.398438-17.066406h477.867188v-332.800781c-.019532-18.84375-15.289063-34.113281-34.132813-34.132813v221.867188c-.011719 9.421875-7.644531 17.054687-17.066406 17.066406h-256c-9.421875-.011719-17.058594-7.644531-17.066406-17.066406v-221.867188h-119.46875c-18.84375.019532-34.113281 15.289063-34.132813 34.132813zm0 0" fill="#000000" style="fill: rgb(0, 0, 0);"></path><path d="m213.332031 110.933594h-34.132812c-4.710938 0-8.53125-3.820313-8.53125-8.535156v-76.796876c0-4.714843 3.820312-8.535156 8.53125-8.535156h34.132812c14.132813.015625 25.585938 11.46875 25.601563 25.601563v42.664062c-.015625 14.132813-11.46875 25.585938-25.601563 25.601563zm-25.597656-17.066406h25.597656c4.710938-.003907 8.53125-3.824219 8.535157-8.535157v-42.664062c-.003907-4.710938-3.824219-8.53125-8.535157-8.535157h-25.597656zm0 0" fill="#000000" style="fill: rgb(0, 0, 0);"></path><path d="m452.265625 110.933594h-34.132813c-14.132812-.015625-25.582031-11.46875-25.597656-25.601563v-42.664062c.015625-14.132813 11.464844-25.585938 25.597656-25.601563h34.132813c4.714844 0 8.535156 3.820313 8.535156 8.535156v76.796876c0 2.265624-.898437 4.433593-2.5 6.035156-1.601562 1.601562-3.769531 2.5-6.035156 2.5zm-34.132813-76.800782c-4.710937.003907-8.527343 3.824219-8.53125 8.535157v42.664062c.003907 4.710938 3.820313 8.53125 8.53125 8.535157h25.601563v-59.734376zm0 0" fill="#000000" style="fill: rgb(0, 0, 0);"></path><path d="m401.066406 93.867188h-170.667968c-4.710938 0-8.53125-3.820313-8.53125-8.535157v-42.664062c0-4.714844 3.820312-8.535157 8.53125-8.535157h170.667968c4.714844 0 8.535156 3.820313 8.535156 8.535157v42.664062c0 4.714844-3.820312 8.535157-8.535156 8.535157zm-162.132812-17.066407h153.601562v-25.601562h-153.601562zm0 0" fill="#000000" style="fill: rgb(0, 0, 0);"></path><path d="m281.601562 170.667969h-102.402343c-4.710938 0-8.53125-3.820313-8.53125-8.535157 0-4.710937 3.820312-8.53125 8.53125-8.53125h102.402343c4.710938 0 8.53125 3.820313 8.53125 8.53125 0 4.714844-3.820312 8.535157-8.53125 8.535157zm0 0" fill="#000000" style="fill: rgb(0, 0, 0);"></path><path d="m281.601562 204.800781h-102.402343c-4.710938 0-8.53125-3.820312-8.53125-8.535156 0-4.710937 3.820312-8.53125 8.53125-8.53125h102.402343c4.710938 0 8.53125 3.820313 8.53125 8.53125 0 4.714844-3.820312 8.535156-8.53125 8.535156zm0 0" fill="#000000" style="fill: rgb(0, 0, 0);"></path><path d="m452.265625 204.800781h-102.398437c-4.714844 0-8.535157-3.820312-8.535157-8.535156 0-4.710937 3.820313-8.53125 8.535157-8.53125h102.398437c4.714844 0 8.535156 3.820313 8.535156 8.53125 0 4.714844-3.820312 8.535156-8.535156 8.535156zm0 0" fill="#000000" style="fill: rgb(0, 0, 0);"></path><path d="m452.265625 170.667969h-102.398437c-4.714844 0-8.535157-3.820313-8.535157-8.535157 0-4.710937 3.820313-8.53125 8.535157-8.53125h102.398437c4.714844 0 8.535156 3.820313 8.535156 8.53125 0 4.714844-3.820312 8.535157-8.535156 8.535157zm0 0" fill="#000000" style="fill: rgb(0, 0, 0);"></path><path d="m298.753906 162.132812h-.195312c-4.710938-.105468-8.445313-4.007812-8.339844-8.71875 1.382812-61.746093 17.183594-73.667968 21.992188-75.847656 4.136718-1.863281 9.011718-.160156 11.089843 3.875 2.078125 4.039063.632813 8.992188-3.289062 11.277344-1.035157.929688-11.625 11.632812-12.726563 61.078125-.109375 4.632813-3.898437 8.335937-8.53125 8.335937zm20.515625-69.035156h-.007812zm0 0" fill="#000000" style="fill: rgb(0, 0, 0);"></path><path d="m332.714844 162.132812c-4.636719 0-8.425782-3.703124-8.535156-8.339843-1.097657-49.449219-11.6875-60.148438-12.722657-61.078125-3.921875-2.285156-5.367187-7.242188-3.289062-11.277344 2.074219-4.035156 6.949219-5.738281 11.089843-3.875 4.808594 2.179688 20.605469 14.101562 21.988282 75.84375.054687 2.265625-.796875 4.457031-2.359375 6.09375-1.566407 1.632812-3.714844 2.582031-5.976563 2.632812zm-20.515625-69.035156h.007812zm0 0" fill="#000000" style="fill: rgb(0, 0, 0);"></path><path d="m341.332031 213.332031h-51.199219c-9.421874-.007812-17.054687-7.644531-17.066406-17.066406v-34.132813c.011719-9.421874 7.644532-17.054687 17.066406-17.066406h8.621094c4.710938 0 8.53125 3.820313 8.53125 8.535156 0 4.710938-3.820312 8.53125-8.53125 8.53125h-8.621094v34.132813h51.199219v-34.132813h-8.617187c-4.714844 0-8.535156-3.820312-8.535156-8.53125 0-4.714843 3.820312-8.535156 8.535156-8.535156h8.617187c9.421875.011719 17.058594 7.644532 17.066407 17.066406v34.132813c-.007813 9.421875-7.644532 17.058594-17.066407 17.066406zm0 0" fill="#000000" style="fill: rgb(0, 0, 0);"></path><path d="m68.265625 93.867188h-17.066406c-9.421875-.011719-17.054688-7.644532-17.066407-17.066407v-17.066406c.011719-9.421875 7.644532-17.058594 17.066407-17.066406h17.066406c9.421875.007812 17.058594 7.644531 17.066406 17.066406v17.066406c-.007812 9.421875-7.644531 17.054688-17.066406 17.066407zm-17.066406-34.132813v17.066406h17.074219l-.007813-17.066406zm0 0" fill="#000000" style="fill: rgb(0, 0, 0);"></path><path d="m136.535156 93.867188h-17.070312c-9.417969-.011719-17.054688-7.644532-17.066406-17.066407v-17.066406c.011718-9.421875 7.648437-17.058594 17.066406-17.066406h17.070312c9.417969.007812 17.054688 7.644531 17.066406 17.066406v17.066406c-.011718 9.421875-7.648437 17.054688-17.066406 17.066407zm-17.070312-34.132813v17.066406h17.078125l-.007813-17.066406zm0 0" fill="#000000" style="fill: rgb(0, 0, 0);"></path><path d="m68.265625 162.132812h-17.066406c-9.421875-.011718-17.054688-7.644531-17.066407-17.066406v-17.066406c.011719-9.421875 7.644532-17.054688 17.066407-17.066406h17.066406c9.421875.011718 17.058594 7.644531 17.066406 17.066406v17.066406c-.007812 9.421875-7.644531 17.054688-17.066406 17.066406zm-17.066406-34.132812v17.066406h17.074219l-.007813-17.066406zm0 0" fill="#000000" style="fill: rgb(0, 0, 0);"></path><path d="m136.535156 162.132812h-17.070312c-9.417969-.011718-17.054688-7.644531-17.066406-17.066406v-17.066406c.011718-9.421875 7.648437-17.054688 17.066406-17.066406h17.070312c9.417969.011718 17.054688 7.644531 17.066406 17.066406v17.066406c-.011718 9.421875-7.648437 17.054688-17.066406 17.066406zm-17.070312-34.132812v17.066406h17.078125l-.007813-17.066406zm0 0" fill="#000000" style="fill: rgb(0, 0, 0);"></path><path d="m93.867188 281.601562c-18.851563 0-34.132813-15.285156-34.132813-34.136718 0-18.847656 15.28125-34.132813 34.132813-34.132813 18.851562 0 34.132812 15.285157 34.132812 34.132813-.019531 18.84375-15.289062 34.117187-34.132812 34.136718zm0-51.203124c-9.425782 0-17.066407 7.640624-17.066407 17.066406 0 9.425781 7.640625 17.070312 17.066407 17.070312 9.425781 0 17.066406-7.644531 17.066406-17.070312-.011719-9.417969-7.644532-17.054688-17.066406-17.066406zm0 0" fill="#000000" style="fill: rgb(0, 0, 0);"></path><path d="m111.957031 237.910156c-3.449219 0-6.5625-2.082031-7.882812-5.269531-1.320313-3.1875-.589844-6.855469 1.851562-9.296875l7.507813-7.511719c3.347656-3.230469 8.671875-3.1875 11.960937.105469 3.292969 3.292969 3.339844 8.613281.105469 11.960938l-7.507812 7.511718c-1.601563 1.601563-3.769532 2.5-6.035157 2.5zm0 0" fill="#000000" style="fill: rgb(0, 0, 0);"></path><path d="m153.601562 256c-4.714843 0-8.535156-3.820312-8.535156-8.535156 0-28.273438-22.921875-51.199219-51.199218-51.199219-28.277344 0-51.199219 22.925781-51.199219 51.199219 0 4.714844-3.820313 8.535156-8.535157 8.535156-4.710937 0-8.53125-3.820312-8.53125-8.535156 0-37.699219 30.5625-68.265625 68.265626-68.265625 37.703124 0 68.265624 30.566406 68.265624 68.265625 0 4.714844-3.820312 8.535156-8.53125 8.535156zm0 0" fill="#000000" style="fill: rgb(0, 0, 0);"></path><path d="m435.199219 401.066406h-238.933594c-4.710937 0-8.53125-3.820312-8.53125-8.53125v-59.734375c0-4.714843 3.820313-8.535156 8.53125-8.535156h238.933594c4.714843 0 8.535156 3.820313 8.535156 8.535156v59.734375c0 4.710938-3.820313 8.53125-8.535156 8.53125zm-230.398438-17.066406h221.867188v-42.667969h-221.867188zm0 0" fill="#000000" style="fill: rgb(0, 0, 0);"></path><path d="m469.332031 401.066406h-307.199219c-4.710937 0-8.53125-3.820312-8.53125-8.53125v-42.667968c.015626-14.132813 11.464844-25.585938 25.597657-25.601563h273.066406c14.132813.015625 25.585937 11.46875 25.601563 25.601563v42.667968c0 2.261719-.898438 4.433594-2.5 6.03125-1.601563 1.601563-3.769532 2.5-6.035157 2.5zm-298.664062-17.066406h290.132812v-34.132812c-.003906-4.710938-3.824219-8.53125-8.535156-8.535157h-273.066406c-4.710938.003907-8.527344 3.824219-8.53125 8.535157zm0 0" fill="#000000" style="fill: rgb(0, 0, 0);"></path><path d="m401.066406 401.066406h-170.667968c-4.710938 0-8.53125-3.820312-8.53125-8.53125v-59.734375c0-4.714843 3.820312-8.535156 8.53125-8.535156h170.667968c4.714844 0 8.535156 3.820313 8.535156 8.535156v59.734375c0 4.710938-3.820312 8.53125-8.535156 8.53125zm-162.132812-17.066406h153.601562v-42.667969h-153.601562zm0 0" fill="#000000" style="fill: rgb(0, 0, 0);"></path><path d="m366.933594 401.066406h-102.398438c-4.714844 0-8.535156-3.820312-8.535156-8.53125v-59.734375c0-4.714843 3.820312-8.535156 8.535156-8.535156h102.398438c4.710937 0 8.53125 3.820313 8.53125 8.535156v59.734375c0 4.710938-3.820313 8.53125-8.53125 8.53125zm-93.867188-17.066406h85.332032v-42.667969h-85.332032zm0 0" fill="#000000" style="fill: rgb(0, 0, 0);"></path><path d="m332.800781 401.066406h-34.132812c-4.714844 0-8.535157-3.820312-8.535157-8.53125v-59.734375c0-4.714843 3.820313-8.535156 8.535157-8.535156h34.132812c4.710938 0 8.53125 3.820313 8.53125 8.535156v59.734375c0 4.710938-3.820312 8.53125-8.53125 8.53125zm-25.601562-17.066406h17.066406v-42.667969h-17.066406zm0 0" fill="#000000" style="fill: rgb(0, 0, 0);"></path></svg>